<?xml version="1.0" encoding="utf-8"?>
<svg xmlns="http://www.w3.org/2000/svg" style="margin: auto; display: block; shape-rendering: auto; background: none;" width="250" height="37" preserveAspectRatio="xMidYMid">
<style type="text/css">
  text {
    text-anchor: middle; font-size: 30px; opacity: 0;
  }
</style>
<g style="transform-origin:125px 18.5px;transform:scale(1)">
<g transform="translate(125,18.5)">
  <g transform="translate(0,0)"><g class="path" style="transform: scale(1); transform-origin: -79.065px -1.45167px; animation: 1s linear -0.586667s infinite normal forwards running beat-58ccb44c-efcb-4cdc-8bc0-a7ef0ec5a576;"><path d="M2.40-20.70L8.91-20.70L8.91-20.70Q11.79-20.70 13.50-19.06L13.50-19.06L13.50-19.06Q15.21-17.43 15.21-14.58L15.21-14.58L15.21-14.58Q15.21-11.73 13.05-9.71L13.05-9.71L13.05-9.71Q10.89-7.68 7.77-7.68L7.77-7.68L6.06-7.68L6.42 0L2.40 0L2.76-7.29L2.40-20.70zM7.83-17.67L7.83-17.67L6.36-17.67L6.15-10.59L8.19-10.59L8.19-10.59Q9.69-10.59 10.51-11.58L10.51-11.58L10.51-11.58Q11.34-12.57 11.34-14.40L11.34-14.40L11.34-14.40Q11.34-17.67 7.83-17.67" fill="#da2c50" stroke="none" stroke-width="none" transform="translate(-87.87003803253174,8.898330917358399)" style="fill: rgb(218, 44, 80);"></path></g><g class="path" style="transform: scale(1); transform-origin: -60.75px 1.33833px; animation: 1s linear -0.513333s infinite normal forwards running beat-58ccb44c-efcb-4cdc-8bc0-a7ef0ec5a576;"><path d="M20.73-6.27L20.73-6.27Q20.73-10.11 22.80-12.78L22.80-12.78L22.80-12.78Q24.87-15.45 27.64-15.45L27.64-15.45L27.64-15.45Q30.42-15.45 31.96-13.65L31.96-13.65L31.96-13.65Q33.51-11.85 33.51-8.88L33.51-8.88L33.51-8.88Q33.51-4.92 31.52-2.29L31.52-2.29L31.52-2.29Q29.52 0.33 26.49 0.33L26.49 0.33L26.49 0.33Q24 0.33 22.37-1.54L22.37-1.54L22.37-1.54Q20.73-3.42 20.73-6.27L20.73-6.27zM30.15-7.32L30.15-7.32L30.15-7.32Q30.15-11.67 27.18-11.67L27.18-11.67L27.18-11.67Q24.09-11.67 24.09-7.59L24.09-7.59L24.09-7.59Q24.09-5.46 24.96-4.26L24.96-4.26L24.96-4.26Q25.83-3.06 27.25-3.06L27.25-3.06L27.25-3.06Q28.68-3.06 29.41-4.16L29.41-4.16L29.41-4.16Q30.15-5.25 30.15-7.32" fill="#da2c50" stroke="none" stroke-width="none" transform="translate(-87.87003803253174,8.898330917358399)" style="fill: rgb(218, 44, 80);"></path></g><g class="path" style="transform: scale(1); transform-origin: -40.77px -2.56167px; animation: 1s linear -0.44s infinite normal forwards running beat-58ccb44c-efcb-4cdc-8bc0-a7ef0ec5a576;"><path d="M53.49-1.98L50.07 0.30L44.43-8.01L44.43-7.80L44.76-0.75L40.71 0L41.07-7.29L40.71-22.47L44.82-23.22L44.43-8.73L50.43-15.30L53.25-13.38L48-8.46L53.49-1.98" fill="#da2c50" stroke="none" stroke-width="none" transform="translate(-87.87003803253174,8.898330917358399)" style="fill: rgb(218, 44, 80);"></path></g><g class="path" style="transform: scale(1); transform-origin: -23.175px 1.33833px; animation: 1s linear -0.366667s infinite normal forwards running beat-58ccb44c-efcb-4cdc-8bc0-a7ef0ec5a576;"><path d="M65.19-3.06L65.19-3.06L65.19-3.06Q66.06-3.06 67.02-3.51L67.02-3.51L67.02-3.51Q67.98-3.96 68.52-4.41L68.52-4.41L69.06-4.86L70.44-3.18L70.44-3.18Q70.14-2.67 69.51-2.01L69.51-2.01L69.51-2.01Q68.88-1.35 68.23-0.89L68.23-0.89L68.23-0.89Q67.59-0.42 66.52-0.04L66.52-0.04L66.52-0.04Q65.46 0.33 64.32 0.33L64.32 0.33L64.32 0.33Q61.89 0.33 60.36-1.51L60.36-1.51L60.36-1.51Q58.83-3.36 58.83-6.27L58.83-6.27L58.83-6.27Q58.83-9.93 60.96-12.69L60.96-12.69L60.96-12.69Q63.09-15.45 65.94-15.45L65.94-15.45L65.94-15.45Q68.13-15.45 69.34-14.22L69.34-14.22L69.34-14.22Q70.56-12.99 70.56-10.77L70.56-10.77L70.56-10.77Q70.56-9.45 70.11-7.77L70.11-7.77L69.51-7.14L62.01-6.45L62.01-6.45Q62.52-3.06 65.19-3.06zM65.19-12.36L65.19-12.36L65.19-12.36Q63.87-12.36 62.97-11.29L62.97-11.29L62.97-11.29Q62.07-10.23 61.92-8.58L61.92-8.58L67.02-9.21L67.02-9.21Q67.11-9.90 67.11-10.35L67.11-10.35L67.11-10.35Q67.11-12.36 65.19-12.36" fill="#da2c50" stroke="none" stroke-width="none" transform="translate(-87.87003803253174,8.898330917358399)" style="fill: rgb(218, 44, 80);"></path></g><g class="path" style="transform: scale(1); transform-origin: 11.295px -1.46667px; animation: 1s linear -0.293333s infinite normal forwards running beat-58ccb44c-efcb-4cdc-8bc0-a7ef0ec5a576;"><path d="M103.23-9.30L104.52-3.75L104.85-3.75L106.26-8.91L109.14-20.88L112.53-20.34L109.26-8.43L107.25-0.24L101.76 0.15L100.05-7.86L99.03-11.82L98.13-8.43L96.12-0.24L90.72 0.15L88.92-7.86L85.80-20.13L89.70-20.88L92.13-9.30L93.48-3.75L93.81-3.75L95.40-9.30L97.59-17.40L96.90-20.13L100.86-20.88L103.23-9.30" fill="#da2c50" stroke="none" stroke-width="none" transform="translate(-87.87003803253174,8.898330917358399)" style="fill: rgb(218, 44, 80);"></path></g><g class="path" style="transform: scale(1); transform-origin: 37.02px 1.33833px; animation: 1s linear -0.22s infinite normal forwards running beat-58ccb44c-efcb-4cdc-8bc0-a7ef0ec5a576;"><path d="M118.50-6.27L118.50-6.27Q118.50-10.11 120.57-12.78L120.57-12.78L120.57-12.78Q122.64-15.45 125.42-15.45L125.42-15.45L125.42-15.45Q128.19-15.45 129.74-13.65L129.74-13.65L129.74-13.65Q131.28-11.85 131.28-8.88L131.28-8.88L131.28-8.88Q131.28-4.92 129.29-2.29L129.29-2.29L129.29-2.29Q127.29 0.33 124.26 0.33L124.26 0.33L124.26 0.33Q121.77 0.33 120.14-1.54L120.14-1.54L120.14-1.54Q118.50-3.42 118.50-6.27L118.50-6.27zM127.92-7.32L127.92-7.32L127.92-7.32Q127.92-11.67 124.95-11.67L124.95-11.67L124.95-11.67Q121.86-11.67 121.86-7.59L121.86-7.59L121.86-7.59Q121.86-5.46 122.73-4.26L122.73-4.26L122.73-4.26Q123.60-3.06 125.03-3.06L125.03-3.06L125.03-3.06Q126.45-3.06 127.19-4.16L127.19-4.16L127.19-4.16Q127.92-5.25 127.92-7.32" fill="#da2c50" stroke="none" stroke-width="none" transform="translate(-87.87003803253174,8.898330917358399)" style="fill: rgb(218, 44, 80);"></path></g><g class="path" style="transform: scale(1); transform-origin: 54.84px 1.26333px; animation: 1s linear -0.146667s infinite normal forwards running beat-58ccb44c-efcb-4cdc-8bc0-a7ef0ec5a576;"><path d="M138.15-14.49L138.15-14.49L141.78-15.27L141.78-15.27Q142.05-12.96 142.14-10.89L142.14-10.89L142.14-10.89Q144.87-15.12 147.27-15.12L147.27-15.12L146.94-10.44L146.94-10.44Q145.20-10.44 144.20-10.13L144.20-10.13L144.20-10.13Q143.19-9.81 142.14-8.88L142.14-8.88L142.14-7.80L142.47-0.75L138.45 0L138.81-7.29L138.81-7.29Q138.69-11.31 138.15-14.49" fill="#da2c50" stroke="none" stroke-width="none" transform="translate(-87.87003803253174,8.898330917358399)" style="fill: rgb(218, 44, 80);"></path></g><g class="path" style="transform: scale(1); transform-origin: 67.965px -2.71167px; animation: 1s linear -0.0733333s infinite normal forwards running beat-58ccb44c-efcb-4cdc-8bc0-a7ef0ec5a576;"><path d="M153.78-22.47L157.89-23.22L157.50-7.80L157.83-0.75L153.78 0L154.14-7.29L153.78-22.47" fill="#da2c50" stroke="none" stroke-width="none" transform="translate(-87.87003803253174,8.898330917358399)" style="fill: rgb(218, 44, 80);"></path></g><g class="path" style="transform: scale(1); transform-origin: 83.7px -2.54667px; animation: 1s linear 0s infinite normal forwards running beat-58ccb44c-efcb-4cdc-8bc0-a7ef0ec5a576;"><path d="M173.91-2.94L173.91-2.94L173.91-2.94Q171.57 0 169.86 0L169.86 0L169.86 0Q167.73 0 166.37-1.74L166.37-1.74L166.37-1.74Q165.00-3.48 165.00-6.21L165.00-6.21L165.00-6.21Q165.00-9.96 167.09-12.54L167.09-12.54L167.09-12.54Q169.17-15.12 172.20-15.12L172.20-15.12L173.88-14.88L173.88-15.45L173.52-22.47L177.63-23.22L177.24-7.80L177.24-5.16L177.24-5.16Q177.24-3.36 178.14-1.02L178.14-1.02L174.90 0.33L174.90 0.33Q174.03-1.47 173.91-2.94zM168.36-7.77L168.36-7.77L168.36-7.77Q168.36-5.85 169.07-4.77L169.07-4.77L169.07-4.77Q169.77-3.69 171.11-3.69L171.11-3.69L171.11-3.69Q172.44-3.69 173.88-4.77L173.88-4.77L173.88-11.25L173.88-11.25Q172.08-11.61 171.21-11.61L171.21-11.61L171.21-11.61Q169.86-11.61 169.11-10.65L169.11-10.65L169.11-10.65Q168.36-9.69 168.36-7.77" fill="#da2c50" stroke="none" stroke-width="none" transform="translate(-87.87003803253174,8.898330917358399)" style="fill: rgb(218, 44, 80);"></path></g></g>
</g>
</g>
<style id="beat-58ccb44c-efcb-4cdc-8bc0-a7ef0ec5a576" data-anikit="">@keyframes beat-58ccb44c-efcb-4cdc-8bc0-a7ef0ec5a576
{
  0% {
    animation-timing-function: cubic-bezier(0.1028,0.2484,0.1372,0.849);
    transform: scale(1);
  }
  34% {
    animation-timing-function: cubic-bezier(0.7116,0.2095,0.8159,0.6876);
    transform: scale(1.2);
  }
  68% {
    animation-timing-function: cubic-bezier(0.1475,0.2888,0.294,0.883);
    transform: scale(1.0268);
  }
  84% {
    animation-timing-function: cubic-bezier(0.8176,0.2193,0.867,0.6889);
    transform: scale(1.0932);
  }
  100% {
    transform: scale(1);
  }
}</style></svg>